<svg width="44" height="18" viewBox="0 0 44 18" fill="none" xmlns="http://www.w3.org/2000/svg">
<path fill-rule="evenodd" clip-rule="evenodd" d="M23.4766 2.43924L20.4532 3.0881V0.636846L23.4766 0V2.43924ZM11.1901 1.39372L8.25104 2.01855L8.23899 11.6433C8.23899 13.4217 9.57604 14.7314 11.3588 14.7314C12.3465 14.7314 13.0692 14.5512 13.4667 14.3349V11.8957C13.0813 12.0519 11.1781 12.6046 11.1781 10.8263V6.56058H13.4667V4.00118H11.1781L11.1901 1.39372ZM4.07136 6.40459C3.43295 6.40459 3.0475 6.58483 3.0475 7.05345C3.0475 7.56511 3.71087 7.79019 4.53386 8.06942C5.87552 8.52463 7.64139 9.12377 7.64885 11.3432C7.64885 13.494 5.92636 14.7317 3.4209 14.7317C2.385 14.7317 1.25273 14.5274 0.1325 14.0467V11.1869C1.14432 11.7397 2.42113 12.1482 3.4209 12.1482C4.09545 12.1482 4.57727 11.968 4.57727 11.4152C4.57727 10.8485 3.85816 10.5894 2.99 10.2767C1.66785 9.80038 0 9.19954 0 7.19764C0 5.07081 1.62613 3.79712 4.07136 3.79712C5.07113 3.79712 6.05886 3.95333 7.05863 4.34985V7.17361C6.14317 6.68095 4.98681 6.40459 4.07136 6.40459ZM17.2129 4.89063L17.0202 4.00145H14.4183V14.5154H17.4297V7.38995C18.1404 6.46472 19.3449 6.63295 19.7183 6.76512V4.00145C19.3329 3.85726 17.9236 3.59291 17.2129 4.89063ZM20.4528 4.00138H23.4762V14.5153H20.4528V4.00138ZM43.3634 9.30043C43.3634 6.22434 41.8697 3.79712 39.015 3.79712C36.1482 3.79712 34.4136 6.22434 34.4136 9.2764C34.4136 12.8932 36.4613 14.7196 39.4004 14.7196C40.8338 14.7196 41.9179 14.3952 42.737 13.9386V11.5354C41.9179 11.9439 40.9784 12.1963 39.7859 12.1963C38.6175 12.1963 37.5816 11.7877 37.4491 10.3699H43.3393C43.3393 10.3037 43.3436 10.1535 43.3486 9.98039L43.3486 9.97983V9.97968L43.3486 9.97932L43.3486 9.97898C43.3554 9.74364 43.3634 9.46635 43.3634 9.30043ZM37.4128 8.15853C37.4128 6.80073 38.2439 6.23598 39.0028 6.23598C39.7376 6.23598 40.5205 6.80073 40.5205 8.15853H37.4128ZM27.4032 4.73437C27.8248 4.34985 28.5836 3.79712 29.7641 3.79712C31.872 3.79712 33.8595 5.69565 33.8716 9.18028C33.8716 12.9893 31.9082 14.7196 29.752 14.7196C28.692 14.7196 28.0536 14.2751 27.62 13.9626L27.6079 17.3632L24.5966 18V3.98938H27.2466L27.4032 4.73437ZM27.6197 11.511C27.9088 11.8234 28.3304 12.0758 29.041 12.0758C30.1492 12.0758 30.896 10.8742 30.896 9.26404C30.896 7.68995 30.1372 6.46432 29.041 6.46432C28.3545 6.46432 27.9208 6.70464 27.6076 7.05311L27.6197 11.511Z" fill="#6461FC"/>
</svg>
